# xmcd
#
# Track frame offsets:
#	150
#	13400
#	24710
#	36018
#	48433
#	59725
#	69498
#	81285
#	91758
#	103070
#	114580
#	124533
#	135653
#	146483
#	159415
#	170253
#	182293
#	193628
#	206008
#	215033
#	224385
#	236280
#	246475
#	261285
#	273195
#	286650
#	301105
#
# Disc length: 4193 seconds
# Revision: 1
# Processed by: cddbd v1.5.2PL0 Copyright (c) Steve Scherf et al.
# Submitted via: dBpowerAMP V12.0
#
DISCID=87105f1b
DTITLE=Various Artist - Boudleaux and Felice: The Early Years: Volume 2
DYEAR=1991
DGENRE=Country
TTITLE0=Little Jimmy Dickens - Country Boy
TTITLE1=Little Jimmy Dickens - Bessie the Heifer
TTITLE2=Ernest Tubb - Somebody's Stolen My Honey
TTITLE3=Kitty Wells - I'd Rather Stay Home
TTITLE4=Carl Smith - It's a Lovely Lovely World
TTITLE5=Elton Britt - Jackass Blues
TTITLE6=Moon Mullican - Sugar Beet
TTITLE7=Little Jimmy Dickens - Salty Boogie
TTITLE8=Carl Smith - Hey Joe
TTITLE9=Carl Smith - Back Up Buddy
TTITLE10=Ray Price - You Weren't Ashamed to Kiss Me Last Night
TTITLE11=Little Jimmy Dickens - I'm Little But I'm Loud
TTITLE12=Little Jimmy Dickens - Out Behind the Barn
TTITLE13=Homer and Jethro and June Carter - Country Girl
TTITLE14=Homer and Jethro - A Screwball's Love Song
TTITLE15=Bood and Felice Bryant - Overweight Blues
TTITLE16=Bood and Felice Bryant - I Dreamed of a Wedding
TTITLE17=Cowboy and Kathy Copas - Copy Cat
TTITLE18=Porter Wagoner - Pay Day
TTITLE19=Eddy Arnold - I've Been Thinkin'
TTITLE20=Little Jimmy Dickens - Take Me as I Am
TTITLE21=Chet Atkins - Country Gentelman
TTITLE22=Ruth Brown - Have a Good Time
TTITLE23=Bood Bryant - My Baby's Gone
TTITLE24=Eddy Arnold - How's the World Treating You
TTITLE25=Red Foley - Midnight
TTITLE26=Eddy Arnold - Christmas Can't Be Far Away
EXTD=
EXTT0=
EXTT1=
EXTT2=
EXTT3=
EXTT4=
EXTT5=
EXTT6=
EXTT7=
EXTT8=
EXTT9=
EXTT10=
EXTT11=
EXTT12=
EXTT13=
EXTT14=
EXTT15=
EXTT16=
EXTT17=
EXTT18=
EXTT19=
EXTT20=
EXTT21=
EXTT22=
EXTT23=
EXTT24=
EXTT25=
EXTT26=
PLAYORDER=
